<svg width="36" height="36" viewBox="0 0 36 36" fill="none" xmlns="http://www.w3.org/2000/svg">
<rect width="36" height="36" rx="5" fill="#FAF0E6"/>
<mask id="mask0_4352_3457" style="mask-type:alpha" maskUnits="userSpaceOnUse" x="6" y="6" width="24" height="24">
<rect x="6" y="6" width="24" height="24" fill="#396039"/>
</mask>
<g mask="url(#mask0_4352_3457)">
<path d="M18 27C17.7167 27 17.4792 26.9042 17.2875 26.7125C17.0958 26.5208 17 26.2833 17 26V19H10C9.71667 19 9.47917 18.9042 9.2875 18.7125C9.09583 18.5208 9 18.2833 9 18C9 17.7167 9.09583 17.4792 9.2875 17.2875C9.47917 17.0958 9.71667 17 10 17H17V10C17 9.71667 17.0958 9.47917 17.2875 9.2875C17.4792 9.09583 17.7167 9 18 9C18.2833 9 18.5208 9.09583 18.7125 9.2875C18.9042 9.47917 19 9.71667 19 10V17H26C26.2833 17 26.5208 17.0958 26.7125 17.2875C26.9042 17.4792 27 17.7167 27 18C27 18.2833 26.9042 18.5208 26.7125 18.7125C26.5208 18.9042 26.2833 19 26 19H19V26C19 26.2833 18.9042 26.5208 18.7125 26.7125C18.5208 26.9042 18.2833 27 18 27Z" fill="#396039"/>
</g>
</svg>
