<svg width="19" height="19" viewBox="0 0 19 19" fill="none" xmlns="http://www.w3.org/2000/svg">
<rect width="19" height="19" rx="2" fill="#396039" fill-opacity="0.4"/>
<path d="M5.375 16.625C4.93958 16.625 4.56684 16.47 4.25677 16.1599C3.9467 15.8498 3.79167 15.4771 3.79167 15.0417V4.75C3.56736 4.75 3.37934 4.67413 3.2276 4.5224C3.07587 4.37066 3 4.18264 3 3.95833C3 3.73403 3.07587 3.54601 3.2276 3.39427C3.37934 3.24253 3.56736 3.16667 3.79167 3.16667H6.95833C6.95833 2.94236 7.0342 2.75434 7.18594 2.6026C7.33767 2.45087 7.52569 2.375 7.75 2.375H10.9167C11.141 2.375 11.329 2.45087 11.4807 2.6026C11.6325 2.75434 11.7083 2.94236 11.7083 3.16667H14.875C15.0993 3.16667 15.2873 3.24253 15.4391 3.39427C15.5908 3.54601 15.6667 3.73403 15.6667 3.95833C15.6667 4.18264 15.5908 4.37066 15.4391 4.5224C15.2873 4.67413 15.0993 4.75 14.875 4.75V15.0417C14.875 15.4771 14.72 15.8498 14.4099 16.1599C14.0998 16.47 13.7271 16.625 13.2917 16.625H5.375ZM13.2917 4.75H5.375V15.0417H13.2917V4.75ZM7.75 13.4583C7.97431 13.4583 8.16233 13.3825 8.31406 13.2307C8.4658 13.079 8.54167 12.891 8.54167 12.6667V7.125C8.54167 6.90069 8.4658 6.71267 8.31406 6.56094C8.16233 6.4092 7.97431 6.33333 7.75 6.33333C7.52569 6.33333 7.33767 6.4092 7.18594 6.56094C7.0342 6.71267 6.95833 6.90069 6.95833 7.125V12.6667C6.95833 12.891 7.0342 13.079 7.18594 13.2307C7.33767 13.3825 7.52569 13.4583 7.75 13.4583ZM10.9167 13.4583C11.141 13.4583 11.329 13.3825 11.4807 13.2307C11.6325 13.079 11.7083 12.891 11.7083 12.6667V7.125C11.7083 6.90069 11.6325 6.71267 11.4807 6.56094C11.329 6.4092 11.141 6.33333 10.9167 6.33333C10.6924 6.33333 10.5043 6.4092 10.3526 6.56094C10.2009 6.71267 10.125 6.90069 10.125 7.125V12.6667C10.125 12.891 10.2009 13.079 10.3526 13.2307C10.5043 13.3825 10.6924 13.4583 10.9167 13.4583Z" fill="#10310B"/>
</svg>
