<svg width="19" height="19" viewBox="0 0 19 19" fill="none" xmlns="http://www.w3.org/2000/svg">
<rect width="19" height="19" rx="2" fill="#396039" fill-opacity="0.4"/>
<mask id="mask0_4352_3485" style="mask-type:alpha" maskUnits="userSpaceOnUse" x="2" y="2" width="15" height="15">
<rect x="2" y="2" width="15" height="15" fill="#D9D9D9"/>
</mask>
<g mask="url(#mask0_4352_3485)">
<path d="M5.25 16.25C4.90625 16.25 4.61198 16.1276 4.36719 15.8828C4.1224 15.638 4 15.3438 4 15C4 14.6562 4.1224 14.362 4.36719 14.1172C4.61198 13.8724 4.90625 13.75 5.25 13.75H15.25C15.5938 13.75 15.888 13.8724 16.1328 14.1172C16.3776 14.362 16.5 14.6562 16.5 15C16.5 15.3438 16.3776 15.638 16.1328 15.8828C15.888 16.1276 15.5938 16.25 15.25 16.25H5.25ZM6.5 11.25H7.375L12.25 6.39062L11.3594 5.5L6.5 10.375V11.25ZM5.25 11.875V10.1094C5.25 10.026 5.26562 9.94531 5.29688 9.86719C5.32812 9.78906 5.375 9.71875 5.4375 9.65625L12.25 2.85938C12.3646 2.74479 12.4974 2.65625 12.6484 2.59375C12.7995 2.53125 12.9583 2.5 13.125 2.5C13.2917 2.5 13.4531 2.53125 13.6094 2.59375C13.7656 2.65625 13.9063 2.75 14.0313 2.875L14.8906 3.75C15.0156 3.86458 15.1068 4 15.1641 4.15625C15.2214 4.3125 15.25 4.47396 15.25 4.64062C15.25 4.79688 15.2214 4.95052 15.1641 5.10156C15.1068 5.2526 15.0156 5.39063 14.8906 5.51563L8.09375 12.3125C8.03125 12.375 7.96094 12.4219 7.88281 12.4531C7.80469 12.4844 7.72396 12.5 7.64063 12.5H5.875C5.69792 12.5 5.54948 12.4401 5.42969 12.3203C5.3099 12.2005 5.25 12.0521 5.25 11.875Z" fill="#FFFEFE"/>
</g>
</svg>
